<svg xmlns="http://www.w3.org/2000/svg" viewBox="0 0 600 720" width="600" height="720">
  <defs>
    <linearGradient id="faithGrad" x1="0%" y1="20%" x2="100%" y2="80%">
      <stop offset="0%" stop-color="#34688a"/>
      <stop offset="100%" stop-color="#24496a"/>
    </linearGradient>
    <linearGradient id="hopeGrad" x1="50%" y1="0%" x2="50%" y2="100%">
      <stop offset="0%" stop-color="#8a7a48"/>
      <stop offset="100%" stop-color="#6b5c32"/>
    </linearGradient>
    <linearGradient id="loveGrad" x1="100%" y1="20%" x2="0%" y2="80%">
      <stop offset="0%" stop-color="#9a4444"/>
      <stop offset="100%" stop-color="#7a3030"/>
    </linearGradient>
    <linearGradient id="hopeHighlight" x1="50%" y1="0%" x2="50%" y2="100%">
      <stop offset="0%" stop-color="#9a8a55" stop-opacity="0.4"/>
      <stop offset="50%" stop-color="#8a7a48" stop-opacity="0"/>
    </linearGradient>
    <filter id="shadow" x="-20%" y="-10%" width="140%" height="130%">
      <feDropShadow dx="3" dy="6" stdDeviation="10" flood-color="#000000" flood-opacity="0.25"/>
    </filter>
  </defs>

  <g filter="url(#shadow)">
    <!-- Left face: Faith (blue) -->
    <polygon points="300,70 110,400 300,290" fill="url(#faithGrad)"/>
    <!-- Right face: Love (red) -->
    <polygon points="300,70 490,400 300,290" fill="url(#loveGrad)"/>
    <!-- Bottom face: Hope (gold) -->
    <polygon points="110,400 490,400 300,290" fill="url(#hopeGrad)"/>
    <polygon points="110,400 490,400 300,290" fill="url(#hopeHighlight)"/>
    <!-- Outer edges -->
    <line x1="300" y1="70" x2="110" y2="400" stroke="#1a1a1a" stroke-width="1" stroke-opacity="0.1"/>
    <line x1="300" y1="70" x2="490" y2="400" stroke="#1a1a1a" stroke-width="1" stroke-opacity="0.1"/>
    <line x1="110" y1="400" x2="490" y2="400" stroke="#1a1a1a" stroke-width="1" stroke-opacity="0.1"/>
    <!-- Inner edges -->
    <line x1="300" y1="70" x2="300" y2="290" stroke="#1a1a1a" stroke-width="1.2" stroke-opacity="0.18"/>
    <line x1="110" y1="400" x2="300" y2="290" stroke="#1a1a1a" stroke-width="1.2" stroke-opacity="0.18"/>
    <line x1="490" y1="400" x2="300" y2="290" stroke="#1a1a1a" stroke-width="1.2" stroke-opacity="0.18"/>
  </g>

  <!-- FAHOLO wordmark — light colors for dark backgrounds -->
  <text x="300" y="530"
    text-anchor="middle"
    font-family="'Cormorant Garamond', Georgia, serif"
    font-size="72"
    font-weight="600"
    letter-spacing="18">
    <tspan fill="#6BA3CC">FA</tspan><tspan fill="#C4AB6A">HO</tspan><tspan fill="#CC7070">LO</tspan>
  </text>

  <!-- Tagline -->
  <text x="300" y="568"
    text-anchor="middle"
    font-family="'Inter', -apple-system, sans-serif"
    font-size="14"
    font-weight="400"
    letter-spacing="5"
    fill="rgba(255,255,255,0.6)">
    FAITH · HOPE · LOVE
  </text>
</svg>
